solid WHC_Knopf
   facet normal 0.000000e+00 3.673819e-16 1.000000e+00
      outer loop
         vertex 8.750000e+00 -3.800000e+00 -1.350000e+01
         vertex 9.750000e+00 -3.800000e+00 -1.350000e+01
         vertex 9.750000e+00 3.800000e+00 -1.350000e+01
      endloop
   endfacet
   facet normal 0.000000e+00 3.673819e-16 1.000000e+00
      outer loop
         vertex 8.750000e+00 -3.800000e+00 -1.350000e+01
         vertex 9.750000e+00 3.800000e+00 -1.350000e+01
         vertex 8.750000e+00 3.800000e+00 -1.350000e+01
      endloop
   endfacet
   facet normal -1.000000e+00 -1.224606e-16 4.498982e-32
      outer loop
         vertex 8.750000e+00 -3.800000e+00 -1.500000e+01
         vertex 8.750000e+00 -3.800000e+00 -1.350000e+01
         vertex 8.750000e+00 3.800000e+00 -1.350000e+01
      endloop
   endfacet
   facet normal -1.000000e+00 -1.224606e-16 4.498982e-32
      outer loop
         vertex 8.750000e+00 -3.800000e+00 -1.500000e+01
         vertex 8.750000e+00 3.800000e+00 -1.350000e+01
         vertex 8.750000e+00 3.800000e+00 -1.500000e+01
      endloop
   endfacet
   facet normal -1.836910e-16 1.000000e+00 -3.673819e-16
      outer loop
         vertex 8.750000e+00 3.800000e+00 -1.500000e+01
         vertex 8.750000e+00 3.800000e+00 -1.350000e+01
         vertex 9.750000e+00 3.800000e+00 -1.350000e+01
      endloop
   endfacet
   facet normal -1.836910e-16 1.000000e+00 -3.673819e-16
      outer loop
         vertex 8.750000e+00 3.800000e+00 -1.500000e+01
         vertex 9.750000e+00 3.800000e+00 -1.350000e+01
         vertex 9.750000e+00 3.800000e+00 -1.500000e+01
      endloop
   endfacet
   facet normal 1.000000e+00 0.000000e+00 0.000000e+00
      outer loop
         vertex 9.750000e+00 3.800000e+00 -1.500000e+01
         vertex 9.750000e+00 3.800000e+00 -1.350000e+01
         vertex 9.750000e+00 -3.800000e+00 -1.350000e+01
      endloop
   endfacet
   facet normal 1.000000e+00 0.000000e+00 0.000000e+00
      outer loop
         vertex 9.750000e+00 3.800000e+00 -1.500000e+01
         vertex 9.750000e+00 -3.800000e+00 -1.350000e+01
         vertex 9.750000e+00 -3.800000e+00 -1.500000e+01
      endloop
   endfacet
   facet normal 6.123032e-17 -1.000000e+00 3.673819e-16
      outer loop
         vertex 9.750000e+00 -3.800000e+00 -1.500000e+01
         vertex 9.750000e+00 -3.800000e+00 -1.350000e+01
         vertex 8.750000e+00 -3.800000e+00 -1.350000e+01
      endloop
   endfacet
   facet normal 6.123032e-17 -1.000000e+00 3.673819e-16
      outer loop
         vertex 9.750000e+00 -3.800000e+00 -1.500000e+01
         vertex 8.750000e+00 -3.800000e+00 -1.350000e+01
         vertex 8.750000e+00 -3.800000e+00 -1.500000e+01
      endloop
   endfacet
   facet normal 0.000000e+00 3.673819e-16 1.000000e+00
      outer loop
         vertex -8.750000e+00 -3.800000e+00 -2.600000e+01
         vertex 8.750000e+00 3.800000e+00 -2.600000e+01
         vertex -8.750000e+00 3.800000e+00 -2.600000e+01
      endloop
   endfacet
   facet normal 0.000000e+00 3.673819e-16 1.000000e+00
      outer loop
         vertex -8.750000e+00 -3.800000e+00 -2.600000e+01
         vertex 8.750000e+00 -3.800000e+00 -2.600000e+01
         vertex 8.750000e+00 3.800000e+00 -2.600000e+01
      endloop
   endfacet
   facet normal 1.000000e+00 1.224606e-16 -4.498982e-32
      outer loop
         vertex -8.750000e+00 3.800000e+00 -2.600000e+01
         vertex -8.750000e+00 -3.800000e+00 -1.500000e+01
         vertex -8.750000e+00 -3.800000e+00 -2.600000e+01
      endloop
   endfacet
   facet normal 1.000000e+00 1.224606e-16 -4.498982e-32
      outer loop
         vertex -8.750000e+00 3.800000e+00 -2.600000e+01
         vertex -8.750000e+00 3.800000e+00 -1.500000e+01
         vertex -8.750000e+00 -3.800000e+00 -1.500000e+01
      endloop
   endfacet
   facet normal 1.836910e-16 -1.000000e+00 3.673819e-16
      outer loop
         vertex 8.750000e+00 3.800000e+00 -2.600000e+01
         vertex -8.750000e+00 3.800000e+00 -1.500000e+01
         vertex -8.750000e+00 3.800000e+00 -2.600000e+01
      endloop
   endfacet
   facet normal 1.836910e-16 -1.000000e+00 3.673819e-16
      outer loop
         vertex 8.750000e+00 3.800000e+00 -2.600000e+01
         vertex -7.150000e+00 3.800000e+00 -1.500000e+01
         vertex -8.750000e+00 3.800000e+00 -1.500000e+01
      endloop
   endfacet
   facet normal 1.836910e-16 -1.000000e+00 3.673819e-16
      outer loop
         vertex 8.750000e+00 3.800000e+00 -2.600000e+01
         vertex 7.150000e+00 3.800000e+00 -1.500000e+01
         vertex -7.150000e+00 3.800000e+00 -1.500000e+01
      endloop
   endfacet
   facet normal 1.836910e-16 -1.000000e+00 3.673819e-16
      outer loop
         vertex 8.750000e+00 3.800000e+00 -2.600000e+01
         vertex 8.750000e+00 3.800000e+00 -1.500000e+01
         vertex 7.150000e+00 3.800000e+00 -1.500000e+01
      endloop
   endfacet
   facet normal -1.000000e+00 -0.000000e+00 0.000000e+00
      outer loop
         vertex 8.750000e+00 -3.800000e+00 -2.600000e+01
         vertex 8.750000e+00 3.800000e+00 -1.500000e+01
         vertex 8.750000e+00 3.800000e+00 -2.600000e+01
      endloop
   endfacet
   facet normal -1.000000e+00 -0.000000e+00 0.000000e+00
      outer loop
         vertex 8.750000e+00 -3.800000e+00 -2.600000e+01
         vertex 8.750000e+00 -3.800000e+00 -1.500000e+01
         vertex 8.750000e+00 3.800000e+00 -1.500000e+01
      endloop
   endfacet
   facet normal -6.123032e-17 1.000000e+00 -3.673819e-16
      outer loop
         vertex -8.750000e+00 -3.800000e+00 -2.600000e+01
         vertex 8.750000e+00 -3.800000e+00 -1.500000e+01
         vertex 8.750000e+00 -3.800000e+00 -2.600000e+01
      endloop
   endfacet
   facet normal -6.123032e-17 1.000000e+00 -3.673819e-16
      outer loop
         vertex -8.750000e+00 -3.800000e+00 -2.600000e+01
         vertex 7.150000e+00 -3.800000e+00 -1.500000e+01
         vertex 8.750000e+00 -3.800000e+00 -1.500000e+01
      endloop
   endfacet
   facet normal -6.123032e-17 1.000000e+00 -3.673819e-16
      outer loop
         vertex -8.750000e+00 -3.800000e+00 -2.600000e+01
         vertex -7.150000e+00 -3.800000e+00 -1.500000e+01
         vertex 7.150000e+00 -3.800000e+00 -1.500000e+01
      endloop
   endfacet
   facet normal -6.123032e-17 1.000000e+00 -3.673819e-16
      outer loop
         vertex -8.750000e+00 -3.800000e+00 -2.600000e+01
         vertex -8.750000e+00 -3.800000e+00 -1.500000e+01
         vertex -7.150000e+00 -3.800000e+00 -1.500000e+01
      endloop
   endfacet
   facet normal 0.000000e+00 3.673819e-16 1.000000e+00
      outer loop
         vertex 9.750000e+00 4.800000e+00 -1.500000e+01
         vertex 7.150000e+00 4.800000e+00 -1.500000e+01
         vertex 7.150000e+00 3.800000e+00 -1.500000e+01
      endloop
   endfacet
   facet normal 0.000000e+00 3.673819e-16 1.000000e+00
      outer loop
         vertex 9.750000e+00 4.800000e+00 -1.500000e+01
         vertex 7.150000e+00 3.800000e+00 -1.500000e+01
         vertex 8.750000e+00 3.800000e+00 -1.500000e+01
      endloop
   endfacet
   facet normal 0.000000e+00 3.673819e-16 1.000000e+00
      outer loop
         vertex 9.750000e+00 4.800000e+00 -1.500000e+01
         vertex 8.750000e+00 3.800000e+00 -1.500000e+01
         vertex 9.750000e+00 3.800000e+00 -1.500000e+01
      endloop
   endfacet
   facet normal 0.000000e+00 3.673819e-16 1.000000e+00
      outer loop
         vertex -9.750000e+00 4.800000e+00 -1.500000e+01
         vertex -9.750000e+00 3.800000e+00 -1.500000e+01
         vertex -8.750000e+00 3.800000e+00 -1.500000e+01
      endloop
   endfacet
   facet normal 0.000000e+00 3.673819e-16 1.000000e+00
      outer loop
         vertex -9.750000e+00 4.800000e+00 -1.500000e+01
         vertex -8.750000e+00 3.800000e+00 -1.500000e+01
         vertex -7.150000e+00 3.800000e+00 -1.500000e+01
      endloop
   endfacet
   facet normal 0.000000e+00 3.673819e-16 1.000000e+00
      outer loop
         vertex -9.750000e+00 4.800000e+00 -1.500000e+01
         vertex -7.150000e+00 3.800000e+00 -1.500000e+01
         vertex -7.150000e+00 4.800000e+00 -1.500000e+01
      endloop
   endfacet
   facet normal 0.000000e+00 3.673819e-16 1.000000e+00
      outer loop
         vertex -9.750000e+00 -4.800000e+00 -1.500000e+01
         vertex -7.150000e+00 -4.800000e+00 -1.500000e+01
         vertex -7.150000e+00 -3.800000e+00 -1.500000e+01
      endloop
   endfacet
   facet normal 0.000000e+00 3.673819e-16 1.000000e+00
      outer loop
         vertex -9.750000e+00 -4.800000e+00 -1.500000e+01
         vertex -7.150000e+00 -3.800000e+00 -1.500000e+01
         vertex -8.750000e+00 -3.800000e+00 -1.500000e+01
      endloop
   endfacet
   facet normal 0.000000e+00 3.673819e-16 1.000000e+00
      outer loop
         vertex -9.750000e+00 -4.800000e+00 -1.500000e+01
         vertex -8.750000e+00 -3.800000e+00 -1.500000e+01
         vertex -9.750000e+00 -3.800000e+00 -1.500000e+01
      endloop
   endfacet
   facet normal 0.000000e+00 -3.673819e-16 -1.000000e+00
      outer loop
         vertex -9.750000e+00 4.800000e+00 -2.700000e+01
         vertex 9.750000e+00 4.800000e+00 -2.700000e+01
         vertex 9.750000e+00 -4.800000e+00 -2.700000e+01
      endloop
   endfacet
   facet normal 0.000000e+00 -3.673819e-16 -1.000000e+00
      outer loop
         vertex -9.750000e+00 4.800000e+00 -2.700000e+01
         vertex 9.750000e+00 -4.800000e+00 -2.700000e+01
         vertex -9.750000e+00 -4.800000e+00 -2.700000e+01
      endloop
   endfacet
   facet normal 0.000000e+00 3.673819e-16 1.000000e+00
      outer loop
         vertex 9.750000e+00 -4.800000e+00 -1.500000e+01
         vertex 9.750000e+00 -3.800000e+00 -1.500000e+01
         vertex 8.750000e+00 -3.800000e+00 -1.500000e+01
      endloop
   endfacet
   facet normal 0.000000e+00 3.673819e-16 1.000000e+00
      outer loop
         vertex 9.750000e+00 -4.800000e+00 -1.500000e+01
         vertex 8.750000e+00 -3.800000e+00 -1.500000e+01
         vertex 7.150000e+00 -3.800000e+00 -1.500000e+01
      endloop
   endfacet
   facet normal 0.000000e+00 3.673819e-16 1.000000e+00
      outer loop
         vertex 9.750000e+00 -4.800000e+00 -1.500000e+01
         vertex 7.150000e+00 -3.800000e+00 -1.500000e+01
         vertex 7.150000e+00 -4.800000e+00 -1.500000e+01
      endloop
   endfacet
   facet normal -1.000000e+00 -1.224606e-16 4.498982e-32
      outer loop
         vertex -9.750000e+00 -4.800000e+00 -2.700000e+01
         vertex -9.750000e+00 -4.800000e+00 -1.500000e+01
         vertex -9.750000e+00 -3.800000e+00 -1.500000e+01
      endloop
   endfacet
   facet normal -1.000000e+00 -1.224606e-16 4.498982e-32
      outer loop
         vertex -9.750000e+00 -4.800000e+00 -2.700000e+01
         vertex -9.750000e+00 -3.800000e+00 -1.500000e+01
         vertex -9.750000e+00 3.800000e+00 -1.500000e+01
      endloop
   endfacet
   facet normal -1.000000e+00 -1.224606e-16 4.498982e-32
      outer loop
         vertex -9.750000e+00 -4.800000e+00 -2.700000e+01
         vertex -9.750000e+00 3.800000e+00 -1.500000e+01
         vertex -9.750000e+00 4.800000e+00 -1.500000e+01
      endloop
   endfacet
   facet normal -1.000000e+00 -1.224606e-16 4.498982e-32
      outer loop
         vertex -9.750000e+00 -4.800000e+00 -2.700000e+01
         vertex -9.750000e+00 4.800000e+00 -1.500000e+01
         vertex -9.750000e+00 4.800000e+00 -2.700000e+01
      endloop
   endfacet
   facet normal -1.836910e-16 1.000000e+00 -3.673819e-16
      outer loop
         vertex -9.750000e+00 4.800000e+00 -2.700000e+01
         vertex -9.750000e+00 4.800000e+00 -1.500000e+01
         vertex -7.150000e+00 4.800000e+00 -1.500000e+01
      endloop
   endfacet
   facet normal -1.836910e-16 1.000000e+00 -3.673819e-16
      outer loop
         vertex -9.750000e+00 4.800000e+00 -2.700000e+01
         vertex -7.150000e+00 4.800000e+00 -1.500000e+01
         vertex 7.150000e+00 4.800000e+00 -1.500000e+01
      endloop
   endfacet
   facet normal -1.836910e-16 1.000000e+00 -3.673819e-16
      outer loop
         vertex -9.750000e+00 4.800000e+00 -2.700000e+01
         vertex 7.150000e+00 4.800000e+00 -1.500000e+01
         vertex 9.750000e+00 4.800000e+00 -1.500000e+01
      endloop
   endfacet
   facet normal -1.836910e-16 1.000000e+00 -3.673819e-16
      outer loop
         vertex -9.750000e+00 4.800000e+00 -2.700000e+01
         vertex 9.750000e+00 4.800000e+00 -1.500000e+01
         vertex 9.750000e+00 4.800000e+00 -2.700000e+01
      endloop
   endfacet
   facet normal 1.000000e+00 0.000000e+00 0.000000e+00
      outer loop
         vertex 9.750000e+00 4.800000e+00 -2.700000e+01
         vertex 9.750000e+00 4.800000e+00 -1.500000e+01
         vertex 9.750000e+00 3.800000e+00 -1.500000e+01
      endloop
   endfacet
   facet normal 1.000000e+00 0.000000e+00 0.000000e+00
      outer loop
         vertex 9.750000e+00 4.800000e+00 -2.700000e+01
         vertex 9.750000e+00 3.800000e+00 -1.500000e+01
         vertex 9.750000e+00 -3.800000e+00 -1.500000e+01
      endloop
   endfacet
   facet normal 1.000000e+00 0.000000e+00 0.000000e+00
      outer loop
         vertex 9.750000e+00 4.800000e+00 -2.700000e+01
         vertex 9.750000e+00 -3.800000e+00 -1.500000e+01
         vertex 9.750000e+00 -4.800000e+00 -1.500000e+01
      endloop
   endfacet
   facet normal 1.000000e+00 0.000000e+00 0.000000e+00
      outer loop
         vertex 9.750000e+00 4.800000e+00 -2.700000e+01
         vertex 9.750000e+00 -4.800000e+00 -1.500000e+01
         vertex 9.750000e+00 -4.800000e+00 -2.700000e+01
      endloop
   endfacet
   facet normal 6.123032e-17 -1.000000e+00 3.673819e-16
      outer loop
         vertex 9.750000e+00 -4.800000e+00 -2.700000e+01
         vertex 9.750000e+00 -4.800000e+00 -1.500000e+01
         vertex 7.150000e+00 -4.800000e+00 -1.500000e+01
      endloop
   endfacet
   facet normal 6.123032e-17 -1.000000e+00 3.673819e-16
      outer loop
         vertex 9.750000e+00 -4.800000e+00 -2.700000e+01
         vertex 7.150000e+00 -4.800000e+00 -1.500000e+01
         vertex -7.150000e+00 -4.800000e+00 -1.500000e+01
      endloop
   endfacet
   facet normal 6.123032e-17 -1.000000e+00 3.673819e-16
      outer loop
         vertex 9.750000e+00 -4.800000e+00 -2.700000e+01
         vertex -7.150000e+00 -4.800000e+00 -1.500000e+01
         vertex -9.750000e+00 -4.800000e+00 -1.500000e+01
      endloop
   endfacet
   facet normal 6.123032e-17 -1.000000e+00 3.673819e-16
      outer loop
         vertex 9.750000e+00 -4.800000e+00 -2.700000e+01
         vertex -9.750000e+00 -4.800000e+00 -1.500000e+01
         vertex -9.750000e+00 -4.800000e+00 -2.700000e+01
      endloop
   endfacet
   facet normal 0.000000e+00 3.673819e-16 1.000000e+00
      outer loop
         vertex -7.150000e+00 -4.800000e+00 -1.200000e+01
         vertex 7.500000e-01 -4.800000e+00 -1.200000e+01
         vertex -1.250000e+00 -4.800000e+00 -1.200000e+01
      endloop
   endfacet
   facet normal 0.000000e+00 3.673819e-16 1.000000e+00
      outer loop
         vertex -7.150000e+00 -4.800000e+00 -1.200000e+01
         vertex 7.500000e-01 -4.800000e+00 -1.200000e+01
         vertex 7.150000e+00 -4.800000e+00 -1.200000e+01
      endloop
   endfacet
   facet normal 0.000000e+00 3.673819e-16 1.000000e+00
      outer loop
         vertex -7.150000e+00 -4.800000e+00 -1.200000e+01
         vertex 7.150000e+00 -4.800000e+00 -1.200000e+01
         vertex 7.150000e+00 -3.800000e+00 -1.200000e+01
      endloop
   endfacet
   facet normal 0.000000e+00 3.673819e-16 1.000000e+00
      outer loop
         vertex -7.150000e+00 -4.800000e+00 -1.200000e+01
         vertex 7.150000e+00 -3.800000e+00 -1.200000e+01
         vertex -7.150000e+00 -3.800000e+00 -1.200000e+01
      endloop
   endfacet
   facet normal -1.000000e+00 -1.224606e-16 4.498982e-32
      outer loop
         vertex -7.150000e+00 -4.800000e+00 -1.500000e+01
         vertex -7.150000e+00 -4.800000e+00 -1.200000e+01
         vertex -7.150000e+00 -3.800000e+00 -1.200000e+01
      endloop
   endfacet
   facet normal -1.000000e+00 -1.224606e-16 4.498982e-32
      outer loop
         vertex -7.150000e+00 -4.800000e+00 -1.500000e+01
         vertex -7.150000e+00 -3.800000e+00 -1.200000e+01
         vertex -7.150000e+00 -3.800000e+00 -1.500000e+01
      endloop
   endfacet
   facet normal -1.836910e-16 1.000000e+00 -3.673819e-16
      outer loop
         vertex -7.150000e+00 -3.800000e+00 -1.500000e+01
         vertex -7.150000e+00 -3.800000e+00 -1.200000e+01
         vertex 7.150000e+00 -3.800000e+00 -1.200000e+01
      endloop
   endfacet
   facet normal -1.836910e-16 1.000000e+00 -3.673819e-16
      outer loop
         vertex -7.150000e+00 -3.800000e+00 -1.500000e+01
         vertex 7.150000e+00 -3.800000e+00 -1.200000e+01
         vertex 7.150000e+00 -3.800000e+00 -1.500000e+01
      endloop
   endfacet
   facet normal 1.000000e+00 0.000000e+00 0.000000e+00
      outer loop
         vertex 7.150000e+00 -3.800000e+00 -1.500000e+01
         vertex 7.150000e+00 -3.800000e+00 -1.200000e+01
         vertex 7.150000e+00 -4.800000e+00 -1.200000e+01
      endloop
   endfacet
   facet normal 1.000000e+00 0.000000e+00 0.000000e+00
      outer loop
         vertex 7.150000e+00 -3.800000e+00 -1.500000e+01
         vertex 7.150000e+00 -4.800000e+00 -1.200000e+01
         vertex 7.150000e+00 -4.800000e+00 -1.500000e+01
      endloop
   endfacet
   facet normal 6.123032e-17 -1.000000e+00 3.673819e-16
      outer loop
         vertex 7.150000e+00 -4.800000e+00 -1.500000e+01
         vertex 7.150000e+00 -4.800000e+00 -1.200000e+01
         vertex 7.500000e-01 -4.800000e+00 -1.200000e+01
      endloop
   endfacet
   facet normal 6.123032e-17 -1.000000e+00 3.673819e-16
      outer loop
         vertex 7.150000e+00 -4.800000e+00 -1.500000e+01
         vertex 7.500000e-01 -4.800000e+00 -1.200000e+01
         vertex 7.500000e-01 -4.800000e+00 -1.400000e+01
      endloop
   endfacet
   facet normal 6.123032e-17 -1.000000e+00 3.673819e-16
      outer loop
         vertex 7.150000e+00 -4.800000e+00 -1.500000e+01
         vertex 7.500000e-01 -4.800000e+00 -1.400000e+01
         vertex -1.250000e+00 -4.800000e+00 -1.400000e+01
      endloop
   endfacet
   facet normal 6.123032e-17 -1.000000e+00 3.673819e-16
      outer loop
         vertex 7.150000e+00 -4.800000e+00 -1.500000e+01
         vertex -1.250000e+00 -4.800000e+00 -1.400000e+01
         vertex -7.150000e+00 -4.800000e+00 -1.500000e+01
      endloop
   endfacet
   facet normal 6.123032e-17 -1.000000e+00 3.673819e-16
      outer loop
         vertex -1.250000e+00 -4.800000e+00 -1.400000e+01
         vertex -1.250000e+00 -4.800000e+00 -1.200000e+01
         vertex -7.150000e+00 -4.800000e+00 -1.200000e+01
      endloop
   endfacet
   facet normal 6.123032e-17 -1.000000e+00 3.673819e-16
      outer loop
         vertex -1.250000e+00 -4.800000e+00 -1.400000e+01
         vertex -7.150000e+00 -4.800000e+00 -1.200000e+01
         vertex -7.150000e+00 -4.800000e+00 -1.500000e+01
      endloop
   endfacet
   facet normal 0.000000e+00 3.673819e-16 1.000000e+00
      outer loop
         vertex -9.750000e+00 -3.800000e+00 -1.350000e+01
         vertex -8.750000e+00 -3.800000e+00 -1.350000e+01
         vertex -8.750000e+00 3.800000e+00 -1.350000e+01
      endloop
   endfacet
   facet normal 0.000000e+00 3.673819e-16 1.000000e+00
      outer loop
         vertex -9.750000e+00 -3.800000e+00 -1.350000e+01
         vertex -8.750000e+00 3.800000e+00 -1.350000e+01
         vertex -9.750000e+00 3.800000e+00 -1.350000e+01
      endloop
   endfacet
   facet normal -1.000000e+00 -1.224606e-16 4.498982e-32
      outer loop
         vertex -9.750000e+00 -3.800000e+00 -1.500000e+01
         vertex -9.750000e+00 -3.800000e+00 -1.350000e+01
         vertex -9.750000e+00 3.800000e+00 -1.350000e+01
      endloop
   endfacet
   facet normal -1.000000e+00 -1.224606e-16 4.498982e-32
      outer loop
         vertex -9.750000e+00 -3.800000e+00 -1.500000e+01
         vertex -9.750000e+00 3.800000e+00 -1.350000e+01
         vertex -9.750000e+00 3.800000e+00 -1.500000e+01
      endloop
   endfacet
   facet normal -1.836910e-16 1.000000e+00 -3.673819e-16
      outer loop
         vertex -9.750000e+00 3.800000e+00 -1.500000e+01
         vertex -9.750000e+00 3.800000e+00 -1.350000e+01
         vertex -8.750000e+00 3.800000e+00 -1.350000e+01
      endloop
   endfacet
   facet normal -1.836910e-16 1.000000e+00 -3.673819e-16
      outer loop
         vertex -9.750000e+00 3.800000e+00 -1.500000e+01
         vertex -8.750000e+00 3.800000e+00 -1.350000e+01
         vertex -8.750000e+00 3.800000e+00 -1.500000e+01
      endloop
   endfacet
   facet normal 1.000000e+00 0.000000e+00 0.000000e+00
      outer loop
         vertex -8.750000e+00 3.800000e+00 -1.500000e+01
         vertex -8.750000e+00 3.800000e+00 -1.350000e+01
         vertex -8.750000e+00 -3.800000e+00 -1.350000e+01
      endloop
   endfacet
   facet normal 1.000000e+00 0.000000e+00 0.000000e+00
      outer loop
         vertex -8.750000e+00 3.800000e+00 -1.500000e+01
         vertex -8.750000e+00 -3.800000e+00 -1.350000e+01
         vertex -8.750000e+00 -3.800000e+00 -1.500000e+01
      endloop
   endfacet
   facet normal 6.123032e-17 -1.000000e+00 3.673819e-16
      outer loop
         vertex -8.750000e+00 -3.800000e+00 -1.500000e+01
         vertex -8.750000e+00 -3.800000e+00 -1.350000e+01
         vertex -9.750000e+00 -3.800000e+00 -1.350000e+01
      endloop
   endfacet
   facet normal 6.123032e-17 -1.000000e+00 3.673819e-16
      outer loop
         vertex -8.750000e+00 -3.800000e+00 -1.500000e+01
         vertex -9.750000e+00 -3.800000e+00 -1.350000e+01
         vertex -9.750000e+00 -3.800000e+00 -1.500000e+01
      endloop
   endfacet
   facet normal 0.000000e+00 -5.913637e-01 8.064050e-01
      outer loop
         vertex -1.250000e+00 -4.800000e+00 -1.200000e+01
         vertex 7.500000e-01 -6.300000e+00 -1.310000e+01
         vertex 7.500000e-01 -4.800000e+00 -1.200000e+01
      endloop
   endfacet
   facet normal 0.000000e+00 -5.913637e-01 8.064050e-01
      outer loop
         vertex -1.250000e+00 -4.800000e+00 -1.200000e+01
         vertex -1.250000e+00 -6.300000e+00 -1.310000e+01
         vertex 7.500000e-01 -6.300000e+00 -1.310000e+01
      endloop
   endfacet
   facet normal 1.670018e-16 -3.162278e-01 -9.486833e-01
      outer loop
         vertex 7.500000e-01 -4.800000e+00 -1.400000e+01
         vertex -1.250000e+00 -6.300000e+00 -1.350000e+01
         vertex -1.250000e+00 -4.800000e+00 -1.400000e+01
      endloop
   endfacet
   facet normal 1.670018e-16 -3.162278e-01 -9.486833e-01
      outer loop
         vertex 7.500000e-01 -4.800000e+00 -1.400000e+01
         vertex 7.500000e-01 -6.300000e+00 -1.350000e+01
         vertex -1.250000e+00 -6.300000e+00 -1.350000e+01
      endloop
   endfacet
   facet normal -1.000000e+00 -1.224606e-16 4.498982e-32
      outer loop
         vertex -1.250000e+00 -4.800000e+00 -1.400000e+01
         vertex -1.250000e+00 -6.300000e+00 -1.350000e+01
         vertex -1.250000e+00 -6.300000e+00 -1.310000e+01
      endloop
   endfacet
   facet normal -1.000000e+00 -1.224606e-16 4.498982e-32
      outer loop
         vertex -1.250000e+00 -4.800000e+00 -1.400000e+01
         vertex -1.250000e+00 -6.300000e+00 -1.310000e+01
         vertex -1.250000e+00 -4.800000e+00 -1.200000e+01
      endloop
   endfacet
   facet normal 1.000000e+00 0.000000e+00 0.000000e+00
      outer loop
         vertex 7.500000e-01 -6.300000e+00 -1.350000e+01
         vertex 7.500000e-01 -4.800000e+00 -1.400000e+01
         vertex 7.500000e-01 -4.800000e+00 -1.200000e+01
      endloop
   endfacet
   facet normal 1.000000e+00 0.000000e+00 0.000000e+00
      outer loop
         vertex 7.500000e-01 -6.300000e+00 -1.350000e+01
         vertex 7.500000e-01 -4.800000e+00 -1.200000e+01
         vertex 7.500000e-01 -6.300000e+00 -1.310000e+01
      endloop
   endfacet
   facet normal 6.123032e-17 -1.000000e+00 3.673819e-16
      outer loop
         vertex -1.250000e+00 -6.300000e+00 -1.350000e+01
         vertex 7.500000e-01 -6.300000e+00 -1.350000e+01
         vertex 7.500000e-01 -6.300000e+00 -1.310000e+01
      endloop
   endfacet
   facet normal 6.123032e-17 -1.000000e+00 3.673819e-16
      outer loop
         vertex -1.250000e+00 -6.300000e+00 -1.350000e+01
         vertex 7.500000e-01 -6.300000e+00 -1.310000e+01
         vertex -1.250000e+00 -6.300000e+00 -1.310000e+01
      endloop
   endfacet
   facet normal 0.000000e+00 3.673819e-16 1.000000e+00
      outer loop
         vertex -7.150000e+00 3.800000e+00 -1.200000e+01
         vertex 7.150000e+00 3.800000e+00 -1.200000e+01
         vertex 7.150000e+00 4.800000e+00 -1.200000e+01
      endloop
   endfacet
   facet normal 0.000000e+00 3.673819e-16 1.000000e+00
      outer loop
         vertex -7.150000e+00 3.800000e+00 -1.200000e+01
         vertex 7.150000e+00 4.800000e+00 -1.200000e+01
         vertex 7.500000e-01 4.800000e+00 -1.200000e+01
      endloop
   endfacet
   facet normal 0.000000e+00 3.673819e-16 1.000000e+00
      outer loop
         vertex -7.150000e+00 3.800000e+00 -1.200000e+01
         vertex 7.500000e-01 4.800000e+00 -1.200000e+01
         vertex -1.250000e+00 4.800000e+00 -1.200000e+01
      endloop
   endfacet
   facet normal 0.000000e+00 3.673819e-16 1.000000e+00
      outer loop
         vertex -7.150000e+00 3.800000e+00 -1.200000e+01
         vertex -1.250000e+00 4.800000e+00 -1.200000e+01
         vertex -7.150000e+00 4.800000e+00 -1.200000e+01
      endloop
   endfacet
   facet normal -1.000000e+00 -1.224606e-16 4.498982e-32
      outer loop
         vertex -7.150000e+00 3.800000e+00 -1.500000e+01
         vertex -7.150000e+00 3.800000e+00 -1.200000e+01
         vertex -7.150000e+00 4.800000e+00 -1.200000e+01
      endloop
   endfacet
   facet normal -1.000000e+00 -1.224606e-16 4.498982e-32
      outer loop
         vertex -7.150000e+00 3.800000e+00 -1.500000e+01
         vertex -7.150000e+00 4.800000e+00 -1.200000e+01
         vertex -7.150000e+00 4.800000e+00 -1.500000e+01
      endloop
   endfacet
   facet normal -1.836910e-16 1.000000e+00 -3.673819e-16
      outer loop
         vertex -7.150000e+00 4.800000e+00 -1.500000e+01
         vertex -7.150000e+00 4.800000e+00 -1.200000e+01
         vertex -1.250000e+00 4.800000e+00 -1.200000e+01
      endloop
   endfacet
   facet normal -1.836910e-16 1.000000e+00 -3.673819e-16
      outer loop
         vertex -7.150000e+00 4.800000e+00 -1.500000e+01
         vertex -1.250000e+00 4.800000e+00 -1.200000e+01
         vertex -1.250000e+00 4.800000e+00 -1.400000e+01
      endloop
   endfacet
   facet normal -1.836910e-16 1.000000e+00 -3.673819e-16
      outer loop
         vertex -7.150000e+00 4.800000e+00 -1.500000e+01
         vertex -1.250000e+00 4.800000e+00 -1.400000e+01
         vertex 7.500000e-01 4.800000e+00 -1.400000e+01
      endloop
   endfacet
   facet normal -1.836910e-16 1.000000e+00 -3.673819e-16
      outer loop
         vertex -7.150000e+00 4.800000e+00 -1.500000e+01
         vertex 7.500000e-01 4.800000e+00 -1.400000e+01
         vertex 7.150000e+00 4.800000e+00 -1.500000e+01
      endloop
   endfacet
   facet normal -1.836910e-16 1.000000e+00 -3.673819e-16
      outer loop
         vertex 7.500000e-01 4.800000e+00 -1.400000e+01
         vertex 7.500000e-01 4.800000e+00 -1.200000e+01
         vertex 7.150000e+00 4.800000e+00 -1.200000e+01
      endloop
   endfacet
   facet normal -1.836910e-16 1.000000e+00 -3.673819e-16
      outer loop
         vertex 7.500000e-01 4.800000e+00 -1.400000e+01
         vertex 7.150000e+00 4.800000e+00 -1.200000e+01
         vertex 7.150000e+00 4.800000e+00 -1.500000e+01
      endloop
   endfacet
   facet normal 1.000000e+00 0.000000e+00 0.000000e+00
      outer loop
         vertex 7.150000e+00 4.800000e+00 -1.500000e+01
         vertex 7.150000e+00 4.800000e+00 -1.200000e+01
         vertex 7.150000e+00 3.800000e+00 -1.200000e+01
      endloop
   endfacet
   facet normal 1.000000e+00 0.000000e+00 0.000000e+00
      outer loop
         vertex 7.150000e+00 4.800000e+00 -1.500000e+01
         vertex 7.150000e+00 3.800000e+00 -1.200000e+01
         vertex 7.150000e+00 3.800000e+00 -1.500000e+01
      endloop
   endfacet
   facet normal 6.123032e-17 -1.000000e+00 3.673819e-16
      outer loop
         vertex 7.150000e+00 3.800000e+00 -1.500000e+01
         vertex 7.150000e+00 3.800000e+00 -1.200000e+01
         vertex -7.150000e+00 3.800000e+00 -1.200000e+01
      endloop
   endfacet
   facet normal 6.123032e-17 -1.000000e+00 3.673819e-16
      outer loop
         vertex 7.150000e+00 3.800000e+00 -1.500000e+01
         vertex -7.150000e+00 3.800000e+00 -1.200000e+01
         vertex -7.150000e+00 3.800000e+00 -1.500000e+01
      endloop
   endfacet
   facet normal -1.000000e+00 -1.224606e-16 4.498982e-32
      outer loop
         vertex -1.250000e+00 6.300000e+00 -1.350000e+01
         vertex -1.250000e+00 4.800000e+00 -1.400000e+01
         vertex -1.250000e+00 4.800000e+00 -1.200000e+01
      endloop
   endfacet
   facet normal -1.000000e+00 -1.224606e-16 4.498982e-32
      outer loop
         vertex -1.250000e+00 6.300000e+00 -1.350000e+01
         vertex -1.250000e+00 4.800000e+00 -1.200000e+01
         vertex -1.250000e+00 6.300000e+00 -1.310000e+01
      endloop
   endfacet
   facet normal -1.836910e-16 1.000000e+00 -3.673819e-16
      outer loop
         vertex 7.500000e-01 6.300000e+00 -1.350000e+01
         vertex -1.250000e+00 6.300000e+00 -1.350000e+01
         vertex -1.250000e+00 6.300000e+00 -1.310000e+01
      endloop
   endfacet
   facet normal -1.836910e-16 1.000000e+00 -3.673819e-16
      outer loop
         vertex 7.500000e-01 6.300000e+00 -1.350000e+01
         vertex -1.250000e+00 6.300000e+00 -1.310000e+01
         vertex 7.500000e-01 6.300000e+00 -1.310000e+01
      endloop
   endfacet
   facet normal 1.000000e+00 0.000000e+00 0.000000e+00
      outer loop
         vertex 7.500000e-01 4.800000e+00 -1.400000e+01
         vertex 7.500000e-01 6.300000e+00 -1.350000e+01
         vertex 7.500000e-01 6.300000e+00 -1.310000e+01
      endloop
   endfacet
   facet normal 1.000000e+00 0.000000e+00 0.000000e+00
      outer loop
         vertex 7.500000e-01 4.800000e+00 -1.400000e+01
         vertex 7.500000e-01 6.300000e+00 -1.310000e+01
         vertex 7.500000e-01 4.800000e+00 -1.200000e+01
      endloop
   endfacet
   facet normal -6.072793e-17 3.162278e-01 -9.486833e-01
      outer loop
         vertex -1.250000e+00 4.800000e+00 -1.400000e+01
         vertex 7.500000e-01 6.300000e+00 -1.350000e+01
         vertex 7.500000e-01 4.800000e+00 -1.400000e+01
      endloop
   endfacet
   facet normal -6.072793e-17 3.162278e-01 -9.486833e-01
      outer loop
         vertex -1.250000e+00 4.800000e+00 -1.400000e+01
         vertex -1.250000e+00 6.300000e+00 -1.350000e+01
         vertex 7.500000e-01 6.300000e+00 -1.350000e+01
      endloop
   endfacet
   facet normal 2.839116e-17 5.913637e-01 8.064050e-01
      outer loop
         vertex 7.500000e-01 4.800000e+00 -1.200000e+01
         vertex -1.250000e+00 6.300000e+00 -1.310000e+01
         vertex -1.250000e+00 4.800000e+00 -1.200000e+01
      endloop
   endfacet
   facet normal 2.839116e-17 5.913637e-01 8.064050e-01
      outer loop
         vertex 7.500000e-01 4.800000e+00 -1.200000e+01
         vertex 7.500000e-01 6.300000e+00 -1.310000e+01
         vertex -1.250000e+00 6.300000e+00 -1.310000e+01
      endloop
   endfacet
endsolid
